<?xml version="1.0" encoding="UTF-8" standalone="no"?>
<svg
   xmlns:dc="http://purl.org/dc/elements/1.1/"
   xmlns:cc="http://creativecommons.org/ns#"
   xmlns:rdf="http://www.w3.org/1999/02/22-rdf-syntax-ns#"
   xmlns:svg="http://www.w3.org/2000/svg"
   xmlns="http://www.w3.org/2000/svg"
   xmlns:sodipodi="http://sodipodi.sourceforge.net/DTD/sodipodi-0.dtd"
   xmlns:inkscape="http://www.inkscape.org/namespaces/inkscape"
   version="1.1"
   id="svg2"
   xml:space="preserve"
   width="2829.3333"
   height="2829.3333"
   viewBox="0 0 2829.3333 2829.3333"
   sodipodi:docname="logo.eps"><metadata
     id="metadata8"><rdf:RDF><cc:Work
         rdf:about=""><dc:format>image/svg+xml</dc:format><dc:type
           rdf:resource="http://purl.org/dc/dcmitype/StillImage" /></cc:Work></rdf:RDF></metadata><defs
     id="defs6" /><sodipodi:namedview
     pagecolor="#ffffff"
     bordercolor="#666666"
     borderopacity="1"
     objecttolerance="10"
     gridtolerance="10"
     guidetolerance="10"
     inkscape:pageopacity="0"
     inkscape:pageshadow="2"
     inkscape:window-width="640"
     inkscape:window-height="480"
     id="namedview4" /><g
     id="g10"
     inkscape:groupmode="layer"
     inkscape:label="ink_ext_XXXXXX"
     transform="matrix(1.3333333,0,0,-1.3333333,0,2829.3333)"><g
       id="g12"
       transform="scale(0.1)"><path
         d="m 17952.1,9708.2 313.6,50.5 -871.9,5420.7 -313.5,-50.5 871.8,-5420.7"
         style="fill:#a1a5a3;fill-opacity:1;fill-rule:nonzero;stroke:none"
         id="path14" /><path
         d="m 19522.3,5307.8 c 60.7,-377.6 -196.2,-733 -573.9,-793.8 -377.7,-60.7 -733.2,196.2 -793.9,574 l -619.6,3851.6 c -60.7,377.7 196.3,733.2 574.2,794 377.4,60.6 732.7,-196.4 793.5,-574 l 619.7,-3851.8"
         style="fill:#f9a828;fill-opacity:1;fill-rule:nonzero;stroke:none"
         id="path16" /><path
         d="m 19513.2,5363.9 -1367.6,-220 -608.9,3785.3 1367.6,219.9 608.9,-3785.2"
         style="fill:#494d5b;fill-opacity:1;fill-rule:nonzero;stroke:none"
         id="path18" /><path
         d="m 18154.7,5086.4 c 0,0.1 0,0.2 0,0.2 0,0 0,-0.1 0,-0.2"
         style="fill:#c3c2c3;fill-opacity:1;fill-rule:nonzero;stroke:none"
         id="path20" /><path
         d="m 18567.2,4561.1 c -210.9,90.1 -372.9,282.3 -412.5,525.3 0,0.1 0,0.2 0,0.2 -0.1,0.5 -0.2,0.9 -0.2,1.4 v 0 l -619.6,3851.6 v 0 c -39,243.7 54.5,477.5 226.9,629.7 l 94.7,-588.6 -319.8,-51.5 608.9,-3785.3 319.6,51.4 102,-634.2"
         style="fill:#be7f1e;fill-opacity:1;fill-rule:nonzero;stroke:none"
         id="path22" /><path
         d="m 18145.6,5143.9 -608.9,3785.3 319.8,51.5 608.7,-3785.4 -319.6,-51.4"
         style="fill:#373a43;fill-opacity:1;fill-rule:nonzero;stroke:none"
         id="path24" /><path
         d="m 19198.6,4805.7 c -67,0 -156.7,173.2 -253.6,466.8 l 360,57.9 c 0.1,-318.5 -32.6,-513.3 -100.3,-524.2 -2,-0.3 -4,-0.5 -6.1,-0.5 m -865,4251.7 c -1.2,328.6 31.4,530 100.3,541.1 2,0.3 4.1,0.5 6.1,0.5 68.4,0 160,-179.5 258.9,-482.9 l -365.3,-58.7"
         style="fill:#fab84c;fill-opacity:1;fill-rule:nonzero;stroke:none"
         id="path26" /><path
         d="m 18945,5272.5 c -140.7,426.7 -296.8,1107.9 -421.3,1882.2 -123,764.7 -188.4,1452.9 -190.1,1902.7 l 365.3,58.7 c 139.4,-427.6 293.1,-1101.5 416.1,-1866.2 124.5,-774.3 189.9,-1470.1 190,-1919.5 l -360,-57.9"
         style="fill:#65636e;fill-opacity:1;fill-rule:nonzero;stroke:none"
         id="path28" /><path
         d="m 19085,9754.9 -1909.8,-307.2 -42.4,264.4 1909.9,307.1 42.3,-264.3"
         style="fill:#494d5b;fill-opacity:1;fill-rule:nonzero;stroke:none"
         id="path30" /><path
         d="m 17327.7,16506.6 -600.6,-96.6 -10.7,-1058.2 243.5,-390.7 600.9,96.6 108.8,447.5 -341.9,1001.4"
         style="fill:#575756;fill-opacity:1;fill-rule:nonzero;stroke:none"
         id="path32" /><path
         d="m 2077.45,10956.1 h 14281.2 v 2948.79 H 2077.45 Z"
         style="fill:#2e2c2b;fill-opacity:1;fill-rule:nonzero;stroke:none"
         id="path34" /><path
         d="m 7455.72,14355.3 -8.09,1127.6 c -4.68,660.3 526.67,1199.4 1186.83,1204.2 l 1133.83,8.1 c 660.11,4.9 1199.31,-526.5 1204.01,-1186.8 l 8.1,-1127.6 967.8,7.1 -10.1,1390.2 c -7.4,1022.9 -842.5,1846.1 -1865.2,1838.6 l -1756.29,-12.6 c -1022.94,-7.5 -1846.02,-842.5 -1838.71,-1865.5 l 10.13,-1390.3 967.69,7"
         style="fill:#f9a828;fill-opacity:1;fill-rule:nonzero;stroke:none"
         id="path36" /><path
         d="m 16094.5,15645.5 -3851,-27.9 6.6,-927.9 -6068.33,-43.9 -6.72,927.9 -3851.08,-27.8 c -333.44,-2.4 -606.08,-255.3 -641.94,-578.7 l 9.36,-1281.7 15062.51,108.8 -9.1,1281.7 c -40.5,323 -316.9,571.7 -650.3,569.5"
         style="fill:#a1a5a3;fill-opacity:1;fill-rule:nonzero;stroke:none"
         id="path38" /><path
         d="m 1690.15,13854.7 -2.17,294.5 2.17,-294.5 m 15063.15,21.4 -2.7,381.9 v 0 l 2.8,-381.9"
         style="fill:#c8c7c7;fill-opacity:1;fill-rule:nonzero;stroke:none"
         id="path40" /><path
         d="m 1690.8,13767.3 -0.65,87.4 -2.15,294.5 12758.6,92.1 v -381.9 l -12755.8,-92.1 m 14358.5,103.7 v 381.9 l 701.3,5.1 2.7,-381.9 -704,-5.1"
         style="fill:#7e807f;fill-opacity:1;fill-rule:nonzero;stroke:none"
         id="path42" /><path
         d="m 2395.3,10604.3 32.94,-4563.8 c 6.13,-854.1 703.52,-1541.4 1557.69,-1535.3 l 10558.17,76.3 c 854.1,6.1 1541.3,703.5 1535.2,1557.5 l -32.9,4564.1 -13651.1,-98.8"
         style="fill:#6e8e9c;fill-opacity:1;fill-rule:nonzero;stroke:none"
         id="path44" /><path
         d="m 4688.19,6170.1 c 2.24,-287.2 -228.89,-521.7 -516.24,-523.8 -287.07,-2 -521.61,229.2 -523.65,516.3 l -30.6,4214.5 c -2.05,287.3 229.09,521.9 516.34,523.9 287.26,2.1 521.8,-229.1 523.85,-516.3 l 30.3,-4214.6"
         style="fill:#405059;fill-opacity:1;fill-rule:nonzero;stroke:none"
         id="path46" /><path
         d="m 7230.73,6188.6 c 1.95,-287.3 -229.19,-521.8 -516.34,-523.9 -287.17,-2 -521.71,229.1 -523.85,516.4 l -30.4,4214.5 c -2.15,287.2 228.99,521.6 516.24,523.7 287.16,2.1 521.7,-229 523.85,-516.2 l 30.5,-4214.5"
         style="fill:#405059;fill-opacity:1;fill-rule:nonzero;stroke:none"
         id="path48" /><path
         d="m 9773.07,6206.9 c 2.14,-287.2 -229.09,-521.8 -516.34,-523.8 -287.36,-2.1 -521.71,229 -523.85,516.3 l -30.5,4214.5 c -2.14,287.3 229.08,521.7 516.34,523.9 287.26,2 521.7,-229.1 523.85,-516.4 l 30.5,-4214.5"
         style="fill:#405059;fill-opacity:1;fill-rule:nonzero;stroke:none"
         id="path50" /><path
         d="m 12315.4,6225.3 c 2,-287.3 -229.1,-521.8 -516.3,-523.8 -287.2,-2 -521.7,229 -523.8,516.3 l -30.6,4214.5 c -1.9,287.2 229.2,521.7 516.4,523.8 287.3,2.1 521.8,-229 523.9,-516.2 l 30.4,-4214.6"
         style="fill:#405059;fill-opacity:1;fill-rule:nonzero;stroke:none"
         id="path52" /><path
         d="m 14857.7,6243.6 c 2.1,-287.2 -229,-521.7 -516.4,-523.8 -287.1,-2.1 -521.5,229.1 -523.7,516.3 l -30.5,4214.5 c -2.1,287.4 229.1,521.8 516.5,524 287.1,2 521.5,-229.1 523.7,-516.4 l 30.4,-4214.6"
         style="fill:#405059;fill-opacity:1;fill-rule:nonzero;stroke:none"
         id="path54" /><path
         d="m 2404.17,9367.7 -4.75,662.7 h 0.02 l 4.78,-662.7 h -0.05"
         style="fill:#c8c7c7;fill-opacity:1;fill-rule:nonzero;stroke:none"
         id="path56" /><path
         d="m 2404.22,9367.7 -4.78,662.7 1220.72,8.8 4.81,-662.7 -1220.8,-8.8 m 2260.91,16.3 -4.76,662.7 1502.26,10.9 4.78,-662.7 -1502.28,-10.9 m 2542.39,18.4 -4.8,662.7 1502.16,10.8 4.79,-662.6 -1502.15,-10.9"
         style="fill:#566e79;fill-opacity:1;fill-rule:nonzero;stroke:none"
         id="path58" /><path
         d="m 3624.97,9376.5 -4.81,662.7 1040.16,7.5 4.76,-662.7 -1040.11,-7.5"
         style="fill:#334047;fill-opacity:1;fill-rule:nonzero;stroke:none"
         id="path60" /><path
         d="m 6167.36,9394.9 -4.78,662.7 1040.09,7.5 4.8,-662.7 -1040.11,-7.5"
         style="fill:#334047;fill-opacity:1;fill-rule:nonzero;stroke:none"
         id="path62" /><path
         d="m 9749.81,9420.8 -4.8,662.6 1502.19,10.9 4.8,-662.7 -1502.19,-10.8 m 2542.39,18.3 -4.8,662.7 1502.1,10.9 4.8,-662.7 -1502.1,-10.9"
         style="fill:#566e79;fill-opacity:1;fill-rule:nonzero;stroke:none"
         id="path64" /><path
         d="m 8709.62,9413.3 -4.79,662.6 1040.18,7.5 4.8,-662.6 -1040.19,-7.5"
         style="fill:#334047;fill-opacity:1;fill-rule:nonzero;stroke:none"
         id="path66" /><path
         d="m 11252,9431.6 -4.8,662.7 1040.2,7.5 4.8,-662.7 -1040.2,-7.5"
         style="fill:#334047;fill-opacity:1;fill-rule:nonzero;stroke:none"
         id="path68" /><path
         d="m 15892.2,9465.2 v 662.7 l 158.3,1.1 4.7,-662.7 -163,-1.1"
         style="fill:#566e79;fill-opacity:1;fill-rule:nonzero;stroke:none"
         id="path70" /><path
         d="m 13794.3,9450 -4.8,662.7 814.2,5.8 v -662.6 l -809.4,-5.9"
         style="fill:#334047;fill-opacity:1;fill-rule:nonzero;stroke:none"
         id="path72" /><path
         d="m 1689.44,10599.2 c 40.43,-322.9 316.68,-571.7 650.22,-569.3 l 13770.64,99.5 c 333.3,2.5 606,255.3 641.8,578.7 l -5.6,763.8 -15062.42,-108.9 5.36,-763.8"
         style="fill:#a1a5a3;fill-opacity:1;fill-rule:nonzero;stroke:none"
         id="path74" /><path
         d="m 1686.23,11055.7 -1.67,225.6 1.67,-225.6 m 15062.57,110.4 -1.7,224 h 0.1 l 1.6,-224"
         style="fill:#c8c7c7;fill-opacity:1;fill-rule:nonzero;stroke:none"
         id="path76" /><path
         d="m 1687.39,10899.3 -1.16,156.4 -1.58,225.6 5768.9,41.7 2.74,-382 -5768.9,-41.7 m 9293.41,67.2 -2.7,381.9 3468.5,25.1 v -381.9 l -3465.8,-25.1 m 5068.5,36.7 v 381.9 l 697.9,5 1.6,-224 1.1,-157.8 -700.6,-5.1"
         style="fill:#7e807f;fill-opacity:1;fill-rule:nonzero;stroke:none"
         id="path78" /><path
         d="m 9540.96,12547.4 4.19,-581.8 -667.77,-4.9 -4.28,582 -1428.2,-10.4 17.64,-2465.3 3524.56,25.5 -17.7,2465.4 -1428.44,-10.5"
         style="fill:#f9a828;fill-opacity:1;fill-rule:nonzero;stroke:none"
         id="path80" /><path
         d="m 10987.1,10092.5 -4.8,668.8 h 0.1 l 4.7,-668.8"
         style="fill:#7e807f;fill-opacity:1;fill-rule:nonzero;stroke:none"
         id="path82" /><path
         d="m 7462.54,10067 v 0 l -4.68,668.8 3524.44,25.5 4.8,-668.8 -3524.56,-25.5"
         style="fill:#c2821f;fill-opacity:1;fill-rule:nonzero;stroke:none"
         id="path84" /><path
         d="m 9740.23,10752.3 -1040.09,-7.5 -4.97,669 1040.18,7.5 4.88,-669"
         style="fill:#f3652d;fill-opacity:1;fill-rule:nonzero;stroke:none"
         id="path86" /><path
         d="m 14603.7,8742.7 h 1288.5 v 1891.4 h -1288.5 z"
         style="fill:#656564;fill-opacity:1;fill-rule:nonzero;stroke:none"
         id="path88" /><path
         d="m 15086,8742.7 h -482.3 v 1537.1 c 115.3,-155.6 285.7,-268 482.3,-308.4 V 8742.7"
         style="fill:#4f4f4e;fill-opacity:1;fill-rule:nonzero;stroke:none"
         id="path90" /><path
         d="m 15247.9,15566.1 c 210,0 379.9,-170.1 379.9,-379.9 0,-209.8 -169.9,-379.9 -379.9,-379.9 -209.9,0 -380,170.1 -380,379.9 0,209.8 170.1,379.9 380,379.9 m 0,-5611 c 442.6,0 801.4,358.7 801.4,801.4 v 4513.7 c 0,442.7 -358.8,801.5 -801.4,801.5 -442.5,0 -801.3,-358.8 -801.3,-801.5 v -4513.7 c 0,-442.7 358.8,-801.4 801.3,-801.4"
         style="fill:#f9a828;fill-opacity:1;fill-rule:nonzero;stroke:none"
         id="path92" /><path
         d="m 16049.2,10748 c 0,0.1 0,0.1 0,0.2 0,-0.1 0,-0.1 0,-0.2 m 0,1.6 c 0,0.1 0,0.2 0,0.2 0,0 0,-0.1 0,-0.2 m 0,1.8 c 0,0.1 0,0.1 0,0.2 0,-0.1 0,-0.1 0,-0.2 m 0,1.5 c 0.1,0.2 0.1,0.3 0.1,0.5 0,-0.2 0,-0.3 -0.1,-0.5 m 0.1,1.6 c 0,0.1 0,0.3 0,0.4 0,-0.1 0,-0.2 0,-0.4"
         style="fill:#7b7d7c;fill-opacity:1;fill-rule:nonzero;stroke:none"
         id="path94" /><path
         d="m 16049.3,15271.8 c 0,0.1 0,0.3 0,0.4 0,-0.1 0,-0.3 0,-0.4 m 0,1.5 c 0,0.2 0,0.3 -0.1,0.5 0.1,-0.2 0.1,-0.3 0.1,-0.5 m -0.1,1.8 c 0,0.1 0,0.1 0,0.2 0,-0.1 0,-0.1 0,-0.2 m 0,1.8 c 0,0 0,0.1 0,0.2 0,-0.1 0,-0.2 0,-0.2 m 0,1.6 c 0,0.1 0,0.1 0,0.2 0,-0.1 0,-0.1 0,-0.2 m 0,1.8 v 0 0"
         style="fill:#7b7d7c;fill-opacity:1;fill-rule:nonzero;stroke:none"
         id="path96" /><path
         d="m 15674.8,10079 v 5868.7 c 222.1,-140.2 370.9,-386 374.4,-667.4 v 0 c 0,-0.6 0,-1.1 0,-1.6 0,-0.1 0,-0.1 0,-0.2 0,-0.5 0,-1 0,-1.4 0,-0.1 0,-0.2 0,-0.2 0,-0.5 0,-1.1 0,-1.6 0,-0.1 0,-0.1 0,-0.2 0,-0.4 0,-0.9 0,-1.3 0.1,-0.2 0.1,-0.3 0.1,-0.5 0,-0.3 0,-0.7 0,-1.1 0,-0.1 0,-0.3 0,-0.4 0,-0.5 0,-1.1 0,-1.6 v -4513.7 0 c 0,-0.5 0,-1 0,-1.6 0,-0.1 0,-0.3 0,-0.4 0,-0.4 0,-0.8 0,-1.1 0,-0.2 0,-0.3 -0.1,-0.5 0,-0.4 0,-0.9 0,-1.3 0,-0.1 0,-0.1 0,-0.2 0,-0.5 0,-1.1 0,-1.6 0,0 0,-0.1 0,-0.2 0,-0.4 0,-0.9 0,-1.4 0,-0.1 0,-0.1 0,-0.2 -2.9,-282 -151.9,-528.5 -374.4,-669"
         style="fill:#be7f1e;fill-opacity:1;fill-rule:nonzero;stroke:none"
         id="path98" /><path
         d="m 14659.2,10417.8 c -117.5,0 -212.6,1145.8 -212.6,2559.2 0,1413.3 95.1,2559.1 212.6,2559.1 117.4,0 212.7,-1145.8 212.7,-2559.1 0,-1413.4 -95.3,-2559.2 -212.7,-2559.2"
         style="fill:#fab84c;fill-opacity:1;fill-rule:nonzero;stroke:none"
         id="path100" /><path
         d="M 14573.5,8742.7 12508,3999.1 h 5479.8 L 15862,8742.7 h -1288.5"
         style="fill:#a1a5a3;fill-opacity:1;fill-rule:nonzero;stroke:none"
         id="path102" /><path
         d="m 5528.82,7266.9 c 3.7,1.7 -19.2,46 -57.79,133.8 -37.12,87.9 -93.05,217.7 -140.12,391.9 -47.35,173.6 -94.32,392 -90.81,650.5 1.75,256.3 54.27,560 221.29,846.9 41.21,71.4 87.89,141.9 141.19,209.2 27.58,32.9 53.3,68.3 84.09,99.3 27.38,29.7 55.16,59.8 83.12,90.1 25.72,29.6 59.93,62.6 78.15,89.8 21.24,29.5 43.94,53.2 65.18,87.2 44.05,63.2 84.59,131.6 122.98,202.5 152.01,286.7 252.27,627.1 321.65,982.8 66.55,356.3 98.9,736.5 71.91,1106.6 -12.86,183 -47.26,369 -107.77,506.9 -29.13,67.2 -72.98,108.2 -74.15,100.9 -0.29,-0.8 0,2.2 -2.15,-0.5 -1.07,-0.8 -0.19,2.6 -3.21,1 -3.02,-1.7 -5.75,-2.7 -8.77,-3.1 l -4.87,-0.2 -1.17,0.1 c 29.52,11.1 5.65,2 11.01,4 l -8.67,-3.6 -17.54,-7.2 -8.87,-3.6 -0.49,-1.4 c -1.07,-1.9 -1.46,-2.1 -3.99,-3.2 l -18.81,-13.4 c -53.3,-38.4 -115.47,-104.1 -171.69,-172.9 -57.1,-70 -111.67,-146.7 -163.8,-225.9 -103.38,-159.5 -199.76,-328 -288.04,-499.6 -175.39,-344.3 -326.71,-697.9 -453.1,-1047 -125.6,-349.3 -231.61,-693.3 -306.45,-1024.5 -73.08,-331.2 -122.19,-648.6 -134.17,-941.6 -10.24,-292.4 13.64,-561 82.04,-784.9 68.11,-224 182.7,-398 307.33,-513.5 126.28,-113.7 251.3,-176.7 338.9,-210 43.56,-18.7 78.64,-28 101.92,-36 23.49,-7.6 35.67,-11.4 35.67,-11.4 0,0 -12.57,1.5 -37.03,4.6 -24.36,3.7 -61.49,5.8 -108.06,17.7 -93.35,20 -234.15,58.5 -388.11,164 -152.3,104.7 -312.1,281.9 -414.52,523 -105.91,239 -165.94,529.7 -180.94,844.2 -17.25,315 4.19,655.3 61.19,1007.9 55.64,353 140.41,719.9 257.44,1090.4 116.54,370.5 260.36,746.3 440.82,1116 91.01,184.5 188.65,368.9 304.6,548.1 58.27,89.6 120.05,178.5 190.5,265.9 71.81,87.1 146.16,173.7 256.27,255.6 l 43.75,30 c 19.2,11.7 41.22,23.5 62.17,34.1 l 15.98,7.8 8.87,3.5 17.63,7.1 8.68,3.6 20.07,7.3 8.09,1.9 32.45,7.6 c 43.06,9.9 86.33,17.8 137.87,13.3 49.31,0.4 97.74,-12.6 145.48,-30.3 48.92,-15.4 83.9,-44.4 123.85,-69.9 32.55,-27.5 62.46,-57.5 88.97,-87.6 21.63,-29.6 44.52,-60.3 63.04,-90.4 l 46.38,-89.2 c 100.27,-234 123.75,-452.4 137.78,-666 22.22,-426.6 -28.55,-834.4 -118.29,-1220.7 -91.11,-385.5 -227.14,-749.8 -422.5,-1068 -49.7,-79.1 -102.02,-155.4 -159.71,-227.3 -26.21,-36.2 -62.65,-72.8 -93.45,-108.2 -32.74,-38.9 -61.87,-59.9 -92.47,-89.6 -30.21,-27.3 -60.31,-54.4 -89.94,-81.2 -28.65,-23.6 -52.22,-51.3 -78.15,-76.7 -49.79,-52.3 -94.41,-107.7 -134.56,-164.5 -160.1,-228.7 -239.42,-485.2 -268.94,-719.4 -28.74,-235.1 -16.76,-447.7 5.46,-620.8 23.39,-173.4 53.01,-309.6 76.29,-401.5 23.29,-91.6 36.64,-142.5 33.04,-142.3"
         style="fill:#27252b;fill-opacity:1;fill-rule:nonzero;stroke:none"
         id="path104" /><path
         d="m 6703.76,6993.3 c 0,-374.8 -303.92,-678.6 -678.67,-678.6 -374.86,0 -678.68,303.8 -678.68,678.6 0,374.8 303.82,678.7 678.68,678.7 374.75,0 678.67,-303.9 678.67,-678.7"
         style="fill:#a1a5a3;fill-opacity:1;fill-rule:nonzero;stroke:none"
         id="path106" /><path
         d="M 15151.9,3610 H 8917.33 V 4824.3 H 15151.9 V 3610"
         style="fill:#f9a828;fill-opacity:1;fill-rule:nonzero;stroke:none"
         id="path108" /><path
         d="M 10694.8,6031.1 V 3610 H 8273.93 c -1337.19,0 -2420.92,1084 -2420.92,2421.1 0,1337 1083.73,2420.9 2420.92,2420.9 1337.09,0 2420.87,-1083.9 2420.87,-2420.9"
         style="fill:#2b495e;fill-opacity:1;fill-rule:nonzero;stroke:none"
         id="path110" /><path
         d="m 9641.23,6031.1 c 0,-755.4 -612.13,-1367.5 -1367.3,-1367.5 -755.36,0 -1367.59,612.1 -1367.59,1367.5 0,755.2 612.23,1367.3 1367.59,1367.3 755.17,0 1367.3,-612.1 1367.3,-1367.3"
         style="fill:#f9a828;fill-opacity:1;fill-rule:nonzero;stroke:none"
         id="path112" /><path
         d="m 8273.93,4916.8 c -576.07,0 -1042.91,466.9 -1042.91,1042.8 h 2085.73 c 0,-575.9 -466.94,-1042.8 -1042.82,-1042.8"
         style="fill:#be7f1e;fill-opacity:1;fill-rule:nonzero;stroke:none"
         id="path114" /><path
         d="m 15151.9,3610 h -405.3 v 1214.3 h 405.3 V 3610"
         style="fill:#626262;fill-opacity:1;fill-rule:nonzero;stroke:none"
         id="path116" /><path
         d="m 11290.2,3610 h -137.3 v 607.2 h 137.3 V 3610"
         style="fill:#27252b;fill-opacity:1;fill-rule:nonzero;stroke:none"
         id="path118" /><path
         d="m 11877.7,3610 h -137.4 v 901.6 h 137.4 V 3610"
         style="fill:#27252b;fill-opacity:1;fill-rule:nonzero;stroke:none"
         id="path120" /><path
         d="m 12465.2,3610 h -137.3 v 607.2 h 137.3 V 3610"
         style="fill:#27252b;fill-opacity:1;fill-rule:nonzero;stroke:none"
         id="path122" /><path
         d="m 13052.7,3610 h -137.3 v 901.6 h 137.3 V 3610"
         style="fill:#27252b;fill-opacity:1;fill-rule:nonzero;stroke:none"
         id="path124" /><path
         d="m 13640.2,3610 h -137.3 v 607.2 h 137.3 V 3610"
         style="fill:#27252b;fill-opacity:1;fill-rule:nonzero;stroke:none"
         id="path126" /><path
         d="m 14227.8,3610 h -137.4 v 901.6 h 137.4 V 3610"
         style="fill:#27252b;fill-opacity:1;fill-rule:nonzero;stroke:none"
         id="path128" /></g></g></svg>
